# xmcd
#
# Track frame offsets: 
#        150
#        12081
#        24197
#        32922
#        44471
#        54383
#        65030
#        77994
#        89884
#        101284
#        112738
#        124247
#
# Disc length: 1804 seconds
#
# Revision: 1
# Processed by: cddbd v1.5.2PL0 Copyright (c) Steve Scherf et al.
# Submitted via: ExactAudioCopy v0.95b4
#
DISCID=97070a0c
DTITLE=Patsy Cline - Her Original Four Star Hits Vol. 1
DYEAR=1900
DGENRE=Country
TTITLE0=Walkin' After Midnight
TTITLE1=Today, Tomorrow, And Forever
TTITLE2=Come On In
TTITLE3=The Heart You Break May Be Your Own
TTITLE4=I'm Blue Again
TTITLE5=Walking Dream
TTITLE6=Yes, I Understand
TTITLE7=A Poor Man's Roses
TTITLE8=Stop The World
TTITLE9=Hungry For Love
TTITLE10=I Go To Church On Sunday
TTITLE11=A Stranger In My Arms
EXTD=
EXTT0=
EXTT1=
EXTT2=
EXTT3=
EXTT4=
EXTT5=
EXTT6=
EXTT7=
EXTT8=
EXTT9=
EXTT10=
EXTT11=
PLAYORDER=
